<?xml version="1.0" encoding="utf-8"?>
<!-- Generator: Adobe Illustrator 17.0.0, SVG Export Plug-In . SVG Version: 6.00 Build 0)  -->
<!DOCTYPE svg PUBLIC "-//W3C//DTD SVG 1.1//EN" "http://www.w3.org/Graphics/SVG/1.1/DTD/svg11.dtd">
<svg version="1.1" id="Calque_1" xmlns="http://www.w3.org/2000/svg" xmlns:xlink="http://www.w3.org/1999/xlink" x="0px" y="0px"
	 width="960px" height="560px" viewBox="0 0 960 560" style="enable-background:new 0 0 960 560;" xml:space="preserve">
<path style="fill:#FFFFFF;" d="M169,145c-78.98,0-143,64.02-143,143s64.02,143,143,143s143-64.02,143-143S247.98,145,169,145z
	 M169,372c-46.39,0-84-37.61-84-84s37.61-84,84-84s84,37.61,84,84S215.39,372,169,372z"/>
<path style="fill:#FFFFFF;" d="M222.98,417.6c0,0-5.98,44.1,76.02,21.79c0,10.89,0,50.32,0,50.32s-129,39.95-141.5-61.22"/>
<path style="fill:#FFFFFF;" d="M219,133.5L234,22c0,0,1.5-10,8.5,0c2,11,8.5,42.5,16,46S275,75.5,312,43.5c6.5-8.5,3.5,4,3.5,6.5
	s-5,49,3,51s40.5-1,56-10c4-0.5,6,4,0,8.5s-85.5,77-85.5,77S241,136.5,219,133.5z"/>
<path style="fill:#FFFFFF;" d="M324,248v126c0,0,6.5,58.5,79.5,57s79-52.5,78.5-68.5s0-114.5,0-114.5h-48v114c0,0,1.5,35-34.5,29
	c-12-0.5-29.5-2.5-27.5-35c-0.5-32.5-0.5-108-0.5-108H324z"/>
<polygon style="fill:#FFFFFF;" points="493,248 620,248 620,282 540,282 540,313 615,313 615,346 541,346 541,388 620,388 620,425 
	493,425 "/>
<polygon style="fill:#FFFFFF;" points="633,248 760,248 760,282 680,282 680,313 755,313 755,346 681,346 681,388 760,388 760,425 
	633,425 "/>
<polygon style="fill:#FFFFFF;" points="773,248 773,425 816,425 816,308 887.5,425 933,425 933,248 888,248 888,344 827.5,248 "/>
<g style="enable-background:new    ;">
	<path style="fill:#BC7D00;" d="M497.73,146.86l24.32,21.29c2.28,1.99,3.92,2.98,4.93,2.98c1.69,0,2.54-1.81,2.54-5.42
		c0-4.1-0.24-6.9-0.73-8.4c-0.49-1.5-1.51-2.62-3.08-3.37c-1.27-0.62-2.17-1.28-2.69-1.98c-0.52-0.7-0.78-1.6-0.78-2.71
		c0-2.73,1.87-4.49,5.62-5.27c1.53-0.33,4.2-0.49,8.01-0.49c4.92,0,8.32,0.29,10.21,0.88c2.99,0.91,4.49,2.64,4.49,5.18
		c0,2.12-1.22,3.71-3.66,4.79c-0.98,0.42-1.64,0.8-2,1.12c-0.36,0.33-0.67,0.81-0.93,1.46c-0.88,2.15-1.33,6.22-1.37,12.21v15.92
		c0,2.44,0.02,5.78,0.05,10.01c0.03,5.73-0.31,9.86-1.03,12.4c-0.88,3.16-2.47,4.74-4.79,4.74c-1.01,0-1.88-0.21-2.61-0.63
		s-1.95-1.4-3.64-2.93l-28.96-25.93c-2.02-1.82-3.7-2.73-5.03-2.73c-1.99,0-2.98,2.75-2.98,8.25c0,4.53,0.25,7.62,0.76,9.28
		c0.5,1.66,1.54,2.88,3.1,3.66c2.18,1.07,3.27,2.47,3.27,4.2c0,4.53-4.87,6.79-14.6,6.79c-4.39,0-7.8-0.58-10.23-1.73
		c-2.43-1.16-3.64-2.79-3.64-4.91c0-1.11,0.23-1.94,0.68-2.49c0.46-0.55,1.48-1.3,3.08-2.25c1.53-0.91,2.46-2.52,2.78-4.83
		c0.55-4.2,0.83-10.24,0.83-18.12c0-8.4-0.49-14.52-1.46-18.36c-0.36-1.4-0.81-2.44-1.37-3.13c-0.55-0.68-1.46-1.33-2.73-1.95
		c-1.46-0.72-2.48-1.42-3.05-2.1c-0.57-0.68-0.85-1.51-0.85-2.49c0-3.13,2.69-5.09,8.06-5.91c1.82-0.26,5.01-0.39,9.57-0.39
		c2.6,0,4.5,0.2,5.69,0.61C494.69,144.51,496.1,145.43,497.73,146.86z"/>
	<path style="fill:#BC7D00;" d="M598.9,189.3h-22.95c-1.01,0-1.51,0.44-1.51,1.32c0,2.12,1.15,4.11,3.44,5.98
		c2.29,1.87,4.76,2.81,7.4,2.81c1.56,0,3.3-0.3,5.2-0.9c1.9-0.6,3.47-1.34,4.71-2.22c1.11-0.78,1.99-1.17,2.64-1.17
		c0.85,0,1.68,0.52,2.49,1.56c0.81,1.04,1.22,2.12,1.22,3.22c0,2.34-1.46,4.61-4.39,6.79c-5.18,3.87-11.15,5.81-17.92,5.81
		c-6.84,0-12.57-1.99-17.19-5.96c-2.25-1.95-4.1-4.31-5.57-7.08c-1.92-3.68-2.88-7.55-2.88-11.62c0-5.47,1.66-10.38,4.98-14.75
		c2.86-3.78,6.51-6.59,10.94-8.45c3.32-1.4,6.92-2.1,10.79-2.1c6.18,0,11.44,1.76,15.77,5.27c2.18,1.76,3.94,3.84,5.27,6.25
		c1.53,2.73,2.29,5.4,2.29,8.01c0,2.12-0.44,3.85-1.32,5.2C601.44,188.62,600.3,189.3,598.9,189.3z M577.22,180.16h4.93
		c2.08,0,3.13-0.96,3.13-2.88c0-1.76-0.5-3.19-1.51-4.3c-1.01-1.11-2.33-1.66-3.96-1.66c-1.82,0-3.26,0.72-4.3,2.15
		c-0.98,1.33-1.46,2.69-1.46,4.05c0,0.98,0.24,1.66,0.71,2.05C575.23,179.97,576.05,180.16,577.22,180.16z"/>
	<path style="fill:#BC7D00;" d="M634.64,162.54c5.79,0,10.9,1.45,15.33,4.35c4.2,2.77,6.3,6.2,6.3,10.3c0,2.83-0.98,5.13-2.93,6.88
		c-1.82,1.66-4.02,2.49-6.59,2.49c-2.7,0-4.74-0.98-6.1-2.93c-0.42-0.62-1.04-2.2-1.86-4.74c-0.88-2.73-2.56-4.1-5.03-4.1
		c-1.79,0-3.3,0.78-4.52,2.34s-1.83,3.48-1.83,5.76c0,3.91,1.4,7.37,4.2,10.4c2.28,2.44,5.14,3.66,8.59,3.66
		c1.63,0,2.99-0.14,4.1-0.42c1.11-0.28,2.55-0.84,4.35-1.68c0.46-0.23,0.96-0.34,1.51-0.34c1.11,0,2.08,0.52,2.93,1.56
		c0.85,1.04,1.27,2.26,1.27,3.66c0,1.46-0.6,3-1.81,4.61c-1.21,1.61-2.78,3.02-4.74,4.22c-4.23,2.6-9.23,3.91-14.99,3.91
		c-6.71,0-12.42-1.95-17.14-5.86c-6.05-4.95-9.08-11.25-9.08-18.9c0-7.36,2.82-13.44,8.45-18.26
		C620.44,164.85,626.96,162.54,634.64,162.54z"/>
	<path style="fill:#BC7D00;" d="M687.72,146.91l-0.44,15.28c-0.03,1.53-0.05,3.78-0.05,6.74c0,3.29,0.05,5.22,0.15,5.81
		c0.23,1.33,0.91,2,2.05,2c0.98,0,2.47-0.63,4.49-1.88c2.02-1.25,3.03-2.19,3.03-2.81c0-0.36-0.36-1.01-1.07-1.95
		c-0.52-0.68-0.78-1.33-0.78-1.95c0-3.52,4.33-5.27,12.99-5.27c4.49,0,8.04,0.46,10.64,1.37c1.04,0.36,1.9,0.98,2.59,1.86
		s1.03,1.82,1.03,2.83c0,1.46-0.7,2.49-2.1,3.08c-0.29,0.13-1.24,0.34-2.83,0.63c-1.43,0.26-3.29,1.15-5.57,2.66
		c-2.28,1.51-3.42,2.61-3.42,3.3c0,0.46,1.38,2.6,4.13,6.42c2.75,3.83,5.31,7.15,7.69,9.99c1.53,1.86,2.73,3.16,3.59,3.91
		c0.86,0.75,2.06,1.55,3.59,2.39c2.34,1.27,3.52,2.72,3.52,4.35c0,1.73-0.74,3.08-2.22,4.05c-1.48,0.98-3.51,1.46-6.08,1.46h-15.82
		c-1.99-0.03-3.53-0.76-4.64-2.2l-8.11-10.4c-2.15-2.73-3.46-4.36-3.93-4.88c-0.47-0.52-0.87-0.78-1.2-0.78
		c-0.39,0-0.65,0.29-0.78,0.88c-0.13,0.59-0.2,1.69-0.2,3.32c0,1.46,0.16,2.53,0.49,3.2c0.33,0.67,1.07,1.47,2.25,2.42
		c0.85,0.68,1.27,1.69,1.27,3.03c0,2.28-1.21,3.92-3.61,4.93c-2.41,1.01-6.38,1.51-11.91,1.51c-6.51,0-10.74-0.28-12.7-0.83
		c-1.11-0.33-2.05-0.98-2.83-1.98c-0.78-0.99-1.17-2.04-1.17-3.15c0-1.24,0.68-2.31,2.05-3.22c1.17-0.75,1.92-1.32,2.25-1.71
		c0.33-0.39,0.59-1.01,0.78-1.86c0.75-4.56,1.11-11.59,1.07-21.09v-10.69c0-3.65-0.19-5.97-0.56-6.98
		c-0.38-1.01-1.29-1.61-2.76-1.81c-2.67-0.36-4-1.46-4-3.32c0-1.24,0.59-2.35,1.76-3.34c1.17-0.99,3.09-1.98,5.76-2.95
		c8.53-3.16,14.84-4.74,18.95-4.74C686.89,144.52,687.79,145.32,687.72,146.91z"/>
	<path style="fill:#BC7D00;" d="M760.72,172.45v15.67c0,6.93,0.11,10.97,0.32,12.11c0.21,1.14,1.02,2.02,2.42,2.64
		c1.2,0.52,2.01,1.01,2.42,1.46c0.41,0.46,0.61,1.11,0.61,1.95c0,1.07-0.38,2.05-1.15,2.93c-0.77,0.88-1.78,1.5-3.05,1.86
		c-2.34,0.72-6.3,1.07-11.87,1.07c-6.28,0-10.69-0.47-13.23-1.42c-1.17-0.42-2.13-1.08-2.88-1.98c-0.75-0.89-1.12-1.83-1.12-2.81
		c0-0.78,0.2-1.38,0.61-1.81c0.41-0.42,1.29-0.93,2.66-1.51c1.27-0.55,2.05-2.07,2.34-4.54c0.52-4.23,0.78-10.25,0.78-18.07
		c0-7.94-0.23-13.05-0.68-15.33c-0.46-2.28-1.6-3.97-3.42-5.08c-1.37-0.78-2.3-1.52-2.81-2.22c-0.5-0.7-0.76-1.55-0.76-2.56
		c0-1.59,0.76-2.99,2.29-4.17c1.53-1.19,3.97-2.29,7.32-3.3c2.25-0.68,5.16-1.33,8.74-1.95c3.58-0.62,6.18-0.93,7.81-0.93
		c2.57,0,3.86,1.6,3.86,4.79c0,1.04-0.16,3.43-0.49,7.18C761.03,162.26,760.78,167.6,760.72,172.45z"/>
	<path style="fill:#BC7D00;" d="M797.24,162.49c5.66,0,10.46,1.43,14.4,4.3c2.08,1.53,3.54,3.28,4.37,5.25
		c0.83,1.97,1.25,4.68,1.25,8.13l-0.1,7.28c0,5.05,0.36,8.32,1.07,9.81c0.36,0.72,0.7,1.17,1.03,1.37c0.33,0.2,1.01,0.38,2.05,0.54
		c1.04,0.16,1.56,0.85,1.56,2.05c0,1.56-0.63,3.19-1.88,4.88c-1.25,1.69-2.87,3.11-4.86,4.25c-2.44,1.43-5,2.15-7.67,2.15
		c-3.42,0-6.12-1.17-8.11-3.52c-0.68-0.85-1.32-1.27-1.9-1.27c-0.65,0-1.51,0.41-2.59,1.22c-3.26,2.38-6.95,3.56-11.08,3.56
		c-4.26,0-7.71-0.91-10.35-2.73c-1.73-1.2-3.09-2.77-4.1-4.71c-1.01-1.94-1.51-3.96-1.51-6.08c0-3.38,1.37-6.38,4.1-8.98
		c4.26-4.1,10.64-6.17,19.14-6.2c1.89,0,3.08-0.19,3.56-0.56c0.49-0.37,0.73-1.25,0.73-2.61c0-3.45-0.36-5.95-1.07-7.5
		c-0.72-1.55-1.89-2.32-3.52-2.32c-0.98,0-1.85,0.29-2.61,0.88c-0.77,0.59-1.72,1.66-2.86,3.22c-2.9,4.13-5.92,6.2-9.08,6.2
		c-1.6,0-2.9-0.47-3.91-1.42c-1.01-0.94-1.51-2.18-1.51-3.71c0-1.56,0.63-3.13,1.88-4.69c1.25-1.56,2.95-2.93,5.1-4.1
		C784.68,164.05,790.83,162.49,797.24,162.49z M793.97,190.76c-1.43,0-2.68,0.59-3.74,1.76c-1.06,1.17-1.59,2.57-1.59,4.2
		c0,1.56,0.37,2.82,1.12,3.78c0.75,0.96,1.74,1.44,2.98,1.44c2.6,0,3.91-2.2,3.91-6.59c0-1.79-0.19-2.99-0.56-3.61
		C795.72,191.12,795.01,190.79,793.97,190.76z"/>
	<path style="fill:#BC7D00;" d="M853.88,162.54c5.79,0,10.9,1.45,15.33,4.35c4.2,2.77,6.3,6.2,6.3,10.3c0,2.83-0.98,5.13-2.93,6.88
		c-1.82,1.66-4.02,2.49-6.59,2.49c-2.7,0-4.74-0.98-6.1-2.93c-0.42-0.62-1.04-2.2-1.86-4.74c-0.88-2.73-2.56-4.1-5.03-4.1
		c-1.79,0-3.3,0.78-4.52,2.34s-1.83,3.48-1.83,5.76c0,3.91,1.4,7.37,4.2,10.4c2.28,2.44,5.14,3.66,8.59,3.66
		c1.63,0,2.99-0.14,4.1-0.42c1.11-0.28,2.55-0.84,4.35-1.68c0.46-0.23,0.96-0.34,1.51-0.34c1.11,0,2.08,0.52,2.93,1.56
		c0.85,1.04,1.27,2.26,1.27,3.66c0,1.46-0.6,3-1.81,4.61c-1.21,1.61-2.78,3.02-4.74,4.22c-4.23,2.6-9.23,3.91-14.99,3.91
		c-6.71,0-12.42-1.95-17.14-5.86c-6.05-4.95-9.08-11.25-9.08-18.9c0-7.36,2.82-13.44,8.45-18.26
		C839.67,164.85,846.2,162.54,853.88,162.54z"/>
	<path style="fill:#BC7D00;" d="M923.8,189.3h-22.95c-1.01,0-1.51,0.44-1.51,1.32c0,2.12,1.15,4.11,3.44,5.98
		c2.29,1.87,4.76,2.81,7.4,2.81c1.56,0,3.3-0.3,5.2-0.9c1.9-0.6,3.47-1.34,4.71-2.22c1.11-0.78,1.99-1.17,2.64-1.17
		c0.85,0,1.68,0.52,2.49,1.56c0.81,1.04,1.22,2.12,1.22,3.22c0,2.34-1.46,4.61-4.39,6.79c-5.18,3.87-11.15,5.81-17.92,5.81
		c-6.84,0-12.57-1.99-17.19-5.96c-2.25-1.95-4.1-4.31-5.57-7.08c-1.92-3.68-2.88-7.55-2.88-11.62c0-5.47,1.66-10.38,4.98-14.75
		c2.86-3.78,6.51-6.59,10.94-8.45c3.32-1.4,6.92-2.1,10.79-2.1c6.18,0,11.44,1.76,15.77,5.27c2.18,1.76,3.94,3.84,5.27,6.25
		c1.53,2.73,2.29,5.4,2.29,8.01c0,2.12-0.44,3.85-1.32,5.2C926.34,188.62,925.2,189.3,923.8,189.3z M902.13,180.16h4.93
		c2.08,0,3.13-0.96,3.13-2.88c0-1.76-0.5-3.19-1.51-4.3c-1.01-1.11-2.33-1.66-3.96-1.66c-1.82,0-3.26,0.72-4.3,2.15
		c-0.98,1.33-1.46,2.69-1.46,4.05c0,0.98,0.24,1.66,0.71,2.05C900.13,179.97,900.95,180.16,902.13,180.16z"/>
</g>
<g style="enable-background:new    ;">
	<path style="fill:#BC7D00;" d="M356.24,445.61c3.35,0,7.75,0.83,13.18,2.49c0.65,0.2,1.17,0.29,1.56,0.29
		c0.33,0,1.3-0.29,2.93-0.88c0.52-0.2,1.07-0.29,1.66-0.29c2.18,0,4.48,1.73,6.91,5.18c2.42,3.45,3.64,6.74,3.64,9.86
		c0,1.82-0.55,3.36-1.64,4.61c-1.09,1.25-2.42,1.88-3.98,1.88c-1.3,0-2.36-0.26-3.17-0.78c-0.81-0.52-2.6-2.07-5.37-4.64
		c-3.91-3.65-7.75-5.47-11.52-5.47c-1.82,0-3.28,0.44-4.37,1.32c-1.09,0.88-1.64,2.04-1.64,3.47c0,2.83,2.49,4.96,7.47,6.4
		c6.74,1.99,11.05,3.43,12.94,4.35c8.3,4.04,12.45,9.98,12.45,17.82c0,6.93-2.83,12.6-8.5,16.99c-5.79,4.49-13.36,6.74-22.71,6.74
		c-4.17,0-8.56-0.5-13.18-1.49c-4.62-0.99-7.96-2.16-10.01-3.49c-1.56-1.04-2.97-3.31-4.22-6.81c-1.25-3.5-1.88-6.91-1.88-10.23
		c0-1.59,0.33-2.8,0.98-3.61c0.81-1.04,1.84-1.56,3.08-1.56c1.24,0,2.42,0.63,3.56,1.9c0.68,0.72,2.29,3.01,4.83,6.88
		c1.2,1.82,3.12,3.34,5.74,4.54c2.62,1.21,5.33,1.81,8.13,1.81c2.41,0,4.36-0.45,5.86-1.34c1.5-0.89,2.25-2.04,2.25-3.44
		c0-1.3-0.59-2.42-1.76-3.37c-1.17-0.94-3.08-1.82-5.71-2.64c-4.66-1.46-8.2-2.81-10.64-4.03s-4.72-2.76-6.84-4.61
		c-5.14-4.56-7.71-9.73-7.71-15.53c0-2.86,0.67-5.66,2-8.37c1.33-2.72,3.22-5.07,5.66-7.06
		C341.69,447.9,348.36,445.61,356.24,445.61z"/>
	<path style="fill:#BC7D00;" d="M412.1,446.97h25.73c2.77-0.1,5.29-0.47,7.57-1.12c0.98-0.26,1.84-0.39,2.59-0.39
		c2.64,0,5.2,1.95,7.69,5.86s3.74,7.93,3.74,12.06c0,2.83-0.86,4.9-2.59,6.2c-1.3,0.98-2.86,1.46-4.69,1.46
		c-1.73,0-3.22-0.48-4.49-1.44c-1.27-0.96-2.52-2.55-3.76-4.76c-1.07-2.02-1.92-3.34-2.54-3.96c-0.62-0.62-1.37-0.93-2.25-0.93
		c-1.2,0-2.07,0.5-2.59,1.51c-0.52,1.01-0.78,2.67-0.78,4.98v27.34c0,2.8,0.29,4.83,0.88,6.1s1.69,2.25,3.32,2.93
		c1.76,0.75,2.95,1.46,3.59,2.12c0.63,0.67,0.95,1.59,0.95,2.76c0,2.34-1.59,4.09-4.76,5.22s-8.05,1.71-14.62,1.71
		c-8.07,0-14.06-0.67-17.97-2c-3.29-1.11-4.93-2.9-4.93-5.37c0-1.33,0.59-2.38,1.76-3.13c0.29-0.16,1.45-0.55,3.47-1.17
		c1.24-0.36,2.09-1.04,2.56-2.05c0.47-1.01,0.85-2.95,1.15-5.81c0.26-2.54,0.5-6.65,0.73-12.33c0.23-5.68,0.34-10.6,0.34-14.77
		c0-2.93-0.23-5.01-0.68-6.25c-0.46-1.24-1.2-1.86-2.25-1.86c-1.27,0-2.51,0.91-3.71,2.73c-2.18,3.32-3.97,5.52-5.37,6.59
		c-1.66,1.27-3.27,1.9-4.83,1.9c-1.76,0-3.21-0.66-4.35-1.98c-1.14-1.32-1.71-3-1.71-5.05c0-2.02,0.46-4.24,1.37-6.67
		c0.91-2.42,2.13-4.66,3.66-6.71c2.47-3.32,4.92-4.98,7.32-4.98c0.65,0,1.4,0.1,2.25,0.29c1.76,0.36,3.2,0.6,4.32,0.73
		C409.34,446.91,410.63,446.97,412.1,446.97z"/>
	<path style="fill:#BC7D00;" d="M498.82,445.61c8.37,0,15.67,2.39,21.92,7.18c4.23,3.29,7.67,7.55,10.3,12.79
		c2.57,5.21,3.86,10.42,3.86,15.63c0,7.68-2.54,14.55-7.62,20.61c-4.3,5.14-9.91,8.84-16.85,11.08c-4.26,1.37-8.54,2.05-12.84,2.05
		c-5.63,0-11.02-1.17-16.16-3.52c-6.22-2.83-11.08-7.11-14.6-12.84c-3.42-5.53-5.13-11.64-5.13-18.31c0-7.75,2.2-14.58,6.59-20.51
		c3.91-5.27,9.16-9.15,15.77-11.62C488.5,446.45,493.41,445.61,498.82,445.61z M494.18,459.62c-2.73,0-4.9,1.22-6.49,3.66
		c-1.24,1.82-1.86,3.99-1.86,6.49c0,3.68,0.75,7.93,2.25,12.77s3.39,9.12,5.66,12.87c1.01,1.6,2.25,2.87,3.74,3.81
		c1.48,0.94,2.99,1.42,4.52,1.42c2.47,0,4.47-0.93,5.98-2.78s2.27-4.3,2.27-7.32c0-3.94-0.63-8.19-1.9-12.74
		c-1.27-4.56-2.91-8.45-4.93-11.67c-1.24-1.99-2.67-3.55-4.3-4.69C497.48,460.29,495.84,459.69,494.18,459.62z"/>
	<path style="fill:#BC7D00;" d="M571.08,485.6c-1.24,0-2.03,0.38-2.37,1.12c-0.34,0.75-0.51,2.49-0.51,5.22
		c0,4.13,0.26,7.36,0.78,9.67c0.16,0.65,0.41,1.16,0.73,1.51c0.33,0.36,0.94,0.8,1.86,1.32c1.95,1.07,2.93,2.49,2.93,4.25
		c0,2.15-1.36,3.67-4.08,4.57s-7.32,1.34-13.79,1.34c-12.04,0-18.07-2.28-18.07-6.84c0-0.78,0.18-1.41,0.54-1.88
		c0.36-0.47,1.17-1.13,2.44-1.98c1.43-0.94,2.4-2.06,2.91-3.34c0.5-1.29,0.85-3.51,1.05-6.67c0.16-2.31,0.24-10.6,0.24-24.85
		c0-4.52-0.23-7.6-0.68-9.23c-0.46-1.63-1.43-2.82-2.93-3.56c-1.43-0.68-2.39-1.31-2.88-1.88c-0.49-0.57-0.73-1.31-0.73-2.22
		c0-1.2,0.46-2.25,1.39-3.15c0.93-0.89,2.22-1.55,3.88-1.98c1.4-0.36,3.32-0.54,5.76-0.54c1.07,0,3.76,0.16,8.06,0.49
		c0.81,0.07,2.1,0.1,3.86,0.1c2.93,0,6.84-0.2,11.72-0.59c3.09-0.23,5.26-0.34,6.49-0.34c6.97,0,12.73,1.68,17.29,5.03
		c4.1,3.03,6.15,7.23,6.15,12.6c0,3-0.72,5.72-2.15,8.18c-1.43,2.46-3.4,4.31-5.91,5.54c-1.04,0.52-1.56,1.14-1.56,1.86
		c0,0.94,0.8,1.71,2.39,2.29c3.42,1.24,5.92,3.11,7.52,5.62c1.59,2.51,2.73,6.35,3.42,11.52c0.29,2.15,0.72,3.54,1.27,4.17
		s1.84,1.25,3.86,1.83c0.62,0.2,1.14,0.61,1.56,1.25s0.63,1.34,0.63,2.12c0,1.01-0.39,2.03-1.17,3.05s-1.79,1.83-3.03,2.42
		c-2.73,1.27-6.48,1.9-11.23,1.9c-6.35,0-10.89-1.68-13.62-5.03c-1.24-1.5-2.29-3.38-3.15-5.66c-0.86-2.28-1.88-5.83-3.05-10.64
		c-0.75-3.09-1.7-5.27-2.86-6.54S573.23,485.7,571.08,485.6z M568.25,460.7l-0.54,11.38c0,0.1,0,0.24,0,0.44
		c0,1.17,0.17,1.95,0.51,2.34s1.03,0.59,2.08,0.59c2.86,0,4.95-0.74,6.25-2.22c1.3-1.48,1.95-3.85,1.95-7.1
		c0-6.28-2.23-9.42-6.69-9.42c-1.27,0-2.17,0.29-2.69,0.88S568.32,459.2,568.25,460.7z"/>
	<path style="fill:#BC7D00;" d="M626.89,446.97h25.1c5.08,0,8.78-0.11,11.11-0.32c2.33-0.21,4.6-0.64,6.81-1.29
		c0.68-0.2,1.22-0.29,1.61-0.29c1.69,0,3.19,0.91,4.49,2.73c2.15,2.96,3.22,6.54,3.22,10.74c0,2.12-0.45,3.78-1.34,5
		s-2.12,1.83-3.69,1.83c-1.07,0-1.91-0.22-2.51-0.66s-1.41-1.42-2.42-2.95c-1.43-2.18-3.25-3.64-5.44-4.37s-5.8-1.1-10.82-1.1
		c-3.74,0-6.02,0.67-6.84,2c-0.42,0.72-0.68,1.68-0.76,2.88c-0.08,1.21-0.12,4.28-0.12,9.23c0,1.95,0.33,3.17,0.98,3.64
		c0.65,0.47,2.36,0.71,5.13,0.71c1.37,0,2.36-0.28,2.98-0.85c0.62-0.57,1.01-1.59,1.17-3.05c0.23-1.89,0.46-3.18,0.71-3.88
		c0.24-0.7,0.69-1.31,1.34-1.83c0.68-0.59,1.48-0.88,2.39-0.88c1.33,0,2.47,0.63,3.42,1.9c0.68,0.94,1.26,2.61,1.73,5
		s0.71,4.89,0.71,7.5c0,5.14-0.8,9.36-2.39,12.65c-0.88,1.79-2.21,2.69-4,2.69c-1.11,0-1.87-0.28-2.29-0.85
		c-0.42-0.57-0.75-1.75-0.98-3.54c-0.49-3.68-2.64-5.52-6.45-5.52c-1.46,0-2.47,0.46-3,1.39s-0.81,2.65-0.81,5.15
		c0,1.53,0.11,3.51,0.32,5.93c0.21,2.43,0.43,4.03,0.66,4.81c0.26,0.98,1.07,1.65,2.42,2.03c1.35,0.38,3.61,0.56,6.76,0.56
		c4.88,0,8.56-0.63,11.04-1.88c2.47-1.25,4.49-3.52,6.05-6.81c0.91-1.89,1.73-3.16,2.47-3.81c0.73-0.65,1.68-0.98,2.86-0.98
		c1.37,0,2.5,0.59,3.39,1.78c0.9,1.19,1.34,2.68,1.34,4.47c0,1.95-0.5,4.39-1.51,7.32s-2.25,5.53-3.71,7.81
		c-0.75,1.11-1.37,1.85-1.86,2.22c-0.49,0.37-1.11,0.56-1.86,0.56c-0.62,0-1.51-0.1-2.69-0.29c-2.08-0.39-4.87-0.63-8.35-0.73
		h-41.41c-1.66,0-2.95-0.37-3.86-1.1s-1.37-1.77-1.37-3.1c0-0.94,0.2-1.63,0.59-2.05c0.39-0.42,1.29-0.96,2.69-1.61
		c0.98-0.42,1.7-0.94,2.17-1.56c0.47-0.62,0.84-1.53,1.1-2.73c1.07-4.92,1.61-11.54,1.61-19.87c0-12.56-0.78-20.49-2.34-23.78
		c-0.33-0.65-0.68-1.11-1.07-1.37c-0.39-0.26-1.2-0.57-2.44-0.93c-1.86-0.55-2.78-1.79-2.78-3.71c0-1.04,0.31-1.97,0.93-2.78
		c0.62-0.81,1.43-1.35,2.44-1.61C620.79,447.12,623.25,446.97,626.89,446.97z"/>
</g>
</svg>
